<svg width="16" height="18" viewBox="0 0 16 18" fill="none" xmlns="http://www.w3.org/2000/svg">
<path d="M14.7455 3.81698L11.6116 0.683053C11.24 0.3114 10.4967 1.62125e-05 9.96429 1.62125e-05H0.964286C0.43192 1.62125e-05 0 0.431937 0 0.964303V17.0357C0 17.5681 0.43192 18 0.964286 18H14.4643C14.9967 18 15.4286 17.5681 15.4286 17.0357V5.4643C15.4286 4.93194 15.1172 4.18863 14.7455 3.81698ZM10.2857 1.36609C10.4565 1.42636 10.6272 1.51676 10.6975 1.58707L13.8415 4.73104C13.9118 4.80136 14.0022 4.97212 14.0625 5.14287H10.2857V1.36609ZM14.1429 16.7143H1.28571V1.28573H9V5.4643C9 5.99667 9.43192 6.42859 9.96429 6.42859H14.1429V16.7143ZM4.82143 7.7143L2.55134 10.7377C2.47098 10.8482 2.47098 11.0089 2.55134 11.1194L4.82143 14.1429C4.93192 14.2835 5.13281 14.3136 5.27344 14.2031L5.78571 13.8214C5.92634 13.711 5.95647 13.5101 5.84598 13.3694L4.01786 10.9286L5.84598 8.48774C5.95647 8.34712 5.92634 8.14622 5.78571 8.03573L5.27344 7.65403C5.13281 7.54354 4.93192 7.57368 4.82143 7.7143ZM12.8772 10.7377L10.6071 7.7143C10.4967 7.57368 10.2958 7.54354 10.1551 7.65403L9.64286 8.03573C9.50223 8.14622 9.4721 8.34712 9.58259 8.48774L11.4107 10.9286L9.58259 13.3694C9.4721 13.5101 9.50223 13.711 9.64286 13.8214L10.1551 14.2031C10.2958 14.3136 10.4967 14.2835 10.6071 14.1429L12.8772 11.1194C12.9576 11.0089 12.9576 10.8482 12.8772 10.7377ZM6.64955 15.3683L7.28237 15.4688C7.45313 15.4989 7.62388 15.3884 7.65402 15.2076L9.04018 6.86051C9.07031 6.68975 8.95982 6.51899 8.77902 6.48886L8.14621 6.38841C7.97545 6.35828 7.80469 6.46877 7.77455 6.64957L6.38839 14.9967C6.35826 15.1674 6.46875 15.3382 6.64955 15.3683Z" fill="#1E0E62"/>
</svg>
